{
  "accessors": [
    {
      "bufferView": 2,
      "componentType": 5126,
      "count": 1311,
      "max": [
        0.09513229131698608,
        0.2576709985733032,
        0.43324199318885803
      ],
      "min": [
        -0.06111996993422508,
        -0.005302487872540951,
        -0.4356369972229004
      ],
      "type": "VEC3"
    },
    {
      "bufferView": 2,
      "byteOffset": 15732,
      "componentType": 5126,
      "count": 1311,
      "max": [
        0.9997678995132446,
        0.9984459280967712,
        0.9319670796394348
      ],
      "min": [
        -0.9997559785842896,
        -0.9984540939331055,
        -1.0
      ],
      "type": "VEC3"
    },
    {
      "bufferView": 1,
      "componentType": 5126,
      "count": 1311,
      "max": [
        0.994172990322113,
        0.9964280128479004
      ],
      "min": [
        0.005875228904187679,
        0.007363318931311369
      ],
      "type": "VEC2"
    },
    {
      "bufferView": 0,
      "componentType": 5125,
      "count": 5100,
      "type": "SCALAR"
    },
    {
      "bufferView": 2,
      "byteOffset": 31464,
      "componentType": 5126,
      "count": 2509,
      "max": [
        0.2729150056838989,
        0.247981995344162,
        0.5
      ],
      "min": [
        -0.2419389933347702,
        0.04207675904035568,
        -0.4356369972229004
      ],
      "type": "VEC3"
    },
    {
      "bufferView": 2,
      "byteOffset": 61572,
      "componentType": 5126,
      "count": 2509,
      "max": [
        0.999753475189209,
        0.9983865022659302,
        1.0
      ],
      "min": [
        -0.999751091003418,
        -0.9983856081962585,
        -1.0
      ],
      "type": "VEC3"
    },
    {
      "bufferView": 1,
      "byteOffset": 10488,
      "componentType": 5126,
      "count": 2509,
      "max": [
        0.9947659969329834,
        0.9917230010032654
      ],
      "min": [
        0.012409090064466,
        0.008417843841016293
      ],
      "type": "VEC2"
    },
    {
      "bufferView": 0,
      "byteOffset": 20400,
      "componentType": 5125,
      "count": 10464,
      "type": "SCALAR"
    },
    {
      "bufferView": 2,
      "byteOffset": 91680,
      "componentType": 5126,
      "count": 9532,
      "max": [
        0.2914089858531952,
        0.009193538688123226,
        0.24343499541282654
      ],
      "min": [
        -0.23963500559329987,
        -0.263621985912323,
        -0.4356369972229004
      ],
      "type": "VEC3"
    },
    {
      "bufferView": 2,
      "byteOffset": 206064,
      "componentType": 5126,
      "count": 9532,
      "max": [
        0.999994695186615,
        0.9997400045394897,
        1.0
      ],
      "min": [
        -0.9994397163391113,
        -0.9992766976356506,
        -1.0
      ],
      "type": "VEC3"
    },
    {
      "bufferView": 1,
      "byteOffset": 30560,
      "componentType": 5126,
      "count": 9532,
      "max": [
        0.9962829947471619,
        0.9873239994049072
      ],
      "min": [
        0.009285271167755127,
        -0.00022649799939244986
      ],
      "type": "VEC2"
    },
    {
      "bufferView": 0,
      "byteOffset": 62256,
      "componentType": 5125,
      "count": 39120,
      "type": "SCALAR"
    },
    {
      "bufferView": 2,
      "byteOffset": 320448,
      "componentType": 5126,
      "count": 1452,
      "max": [
        0.35781601071357727,
        0.3023799955844879,
        -0.14588400721549988
      ],
      "min": [
        -0.35783201456069946,
        -0.3023959994316101,
        -0.5
      ],
      "type": "VEC3"
    },
    {
      "bufferView": 2,
      "byteOffset": 337872,
      "componentType": 5126,
      "count": 1452,
      "max": [
        1.0,
        1.0,
        1.0
      ],
      "min": [
        -1.0,
        -1.0,
        -1.0
      ],
      "type": "VEC3"
    },
    {
      "bufferView": 1,
      "byteOffset": 106816,
      "componentType": 5126,
      "count": 1452,
      "max": [
        0.9941869974136353,
        0.974918007850647
      ],
      "min": [
        0.012821489945054054,
        0.008578299544751644
      ],
      "type": "VEC2"
    },
    {
      "bufferView": 0,
      "byteOffset": 218736,
      "componentType": 5125,
      "count": 5520,
      "type": "SCALAR"
    }
  ],
  "asset": {
    "extras": {
      "author": "𝕽𝖊𝖆𝖑 𝕾𝖑𝖎𝖒 𝕾𝖍𝖆𝖉𝖞 (https://sketchfab.com/fcuk1)",
      "license": "CC-BY-4.0 (http://creativecommons.org/licenses/by/4.0/)",
      "source": "https://sketchfab.com/3d-models/drinks-and-glass-set-3d-model-5f19aebd3174459e8a1384a11fc39553",
      "title": "Drinks and Glass Set 3D Model"
    },
    "generator": "Sketchfab-15.86.0",
    "version": "2.0"
  },
  "bufferViews": [
    {
      "buffer": 0,
      "byteLength": 240816,
      "name": "floatBufferViews",
      "target": 34963
    },
    {
      "buffer": 0,
      "byteLength": 118432,
      "byteOffset": 240816,
      "byteStride": 8,
      "name": "floatBufferViews",
      "target": 34962
    },
    {
      "buffer": 0,
      "byteLength": 355296,
      "byteOffset": 359248,
      "byteStride": 12,
      "name": "floatBufferViews",
      "target": 34962
    }
  ],
  "buffers": [
    {
      "byteLength": 714544,
      "uri": "scene.bin"
    }
  ],
  "images": [
    {
      "uri": "textures/Material3-material_baseColor.png"
    },
    {
      "uri": "textures/Material1-material_baseColor.png"
    },
    {
      "uri": "textures/Material1-material_emissive.png"
    },
    {
      "uri": "textures/Material0-material_baseColor.png"
    },
    {
      "uri": "textures/Material4-material_baseColor.png"
    }
  ],
  "materials": [
    {
      "doubleSided": true,
      "emissiveFactor": [
        1.0,
        1.0,
        1.0
      ],
      "emissiveTexture": {
        "index": 0
      },
      "name": "Material3-material",
      "pbrMetallicRoughness": {
        "baseColorTexture": {
          "index": 0
        },
        "metallicFactor": 0.0,
        "roughnessFactor": 0.4
      }
    },
    {
      "alphaMode": "BLEND",
      "doubleSided": true,
      "emissiveFactor": [
        1.0,
        1.0,
        1.0
      ],
      "emissiveTexture": {
        "index": 2
      },
      "name": "Material1-material",
      "pbrMetallicRoughness": {
        "baseColorTexture": {
          "index": 1
        },
        "metallicFactor": 0.3321432844090998,
        "roughnessFactor": 0.0
      }
    },
    {
      "doubleSided": true,
      "emissiveFactor": [
        1.0,
        1.0,
        1.0
      ],
      "emissiveTexture": {
        "index": 3
      },
      "name": "Material0-material",
      "pbrMetallicRoughness": {
        "baseColorTexture": {
          "index": 3
        },
        "metallicFactor": 0.31325361894507514,
        "roughnessFactor": 0.30265651661975734
      }
    },
    {
      "doubleSided": true,
      "emissiveFactor": [
        1.0,
        1.0,
        1.0
      ],
      "emissiveTexture": {
        "index": 4
      },
      "name": "Material4-material",
      "pbrMetallicRoughness": {
        "baseColorTexture": {
          "index": 4
        },
        "metallicFactor": 0.3447363947184495,
        "roughnessFactor": 0.21450474445430912
      }
    }
  ],
  "meshes": [
    {
      "name": "Material4-material-material",
      "primitives": [
        {
          "attributes": {
            "NORMAL": 1,
            "POSITION": 0,
            "TEXCOORD_0": 2
          },
          "indices": 3,
          "material": 3,
          "mode": 4
        }
      ]
    },
    {
      "name": "Material0-material-material",
      "primitives": [
        {
          "attributes": {
            "NORMAL": 5,
            "POSITION": 4,
            "TEXCOORD_0": 6
          },
          "indices": 7,
          "material": 2,
          "mode": 4
        }
      ]
    },
    {
      "name": "Material1-material-material",
      "primitives": [
        {
          "attributes": {
            "NORMAL": 9,
            "POSITION": 8,
            "TEXCOORD_0": 10
          },
          "indices": 11,
          "material": 1,
          "mode": 4
        }
      ]
    },
    {
      "name": "Material3-material-material",
      "primitives": [
        {
          "attributes": {
            "NORMAL": 13,
            "POSITION": 12,
            "TEXCOORD_0": 14
          },
          "indices": 15,
          "material": 0,
          "mode": 4
        }
      ]
    }
  ],
  "nodes": [
    {
      "children": [
        1
      ],
      "matrix": [
        1.0,
        0.0,
        0.0,
        0.0,
        0.0,
        2.220446049250313e-16,
        -1.0,
        0.0,
        0.0,
        1.0,
        2.220446049250313e-16,
        0.0,
        0.0,
        0.0,
        0.0,
        1.0
      ],
      "name": "Sketchfab_model"
    },
    {
      "children": [
        2,
        4,
        6,
        8
      ],
      "name": "Collada visual scene group"
    },
    {
      "children": [
        3
      ],
      "matrix": [
        0.7841536,
        -0.002774152,
        0.0,
        0.0,
        0.001736757,
        0.4909189,
        0.0,
        0.0,
        0.0,
        0.0,
        0.294106,
        0.0,
        0.0,
        0.0,
        0.1497948,
        1.0
      ],
      "name": "prim0"
    },
    {
      "mesh": 0,
      "name": "Material4-material-material"
    },
    {
      "children": [
        5
      ],
      "matrix": [
        0.7841536,
        -0.002774152,
        0.0,
        0.0,
        0.001736757,
        0.4909189,
        0.0,
        0.0,
        0.0,
        0.0,
        0.294106,
        0.0,
        0.0,
        0.0,
        0.1497948,
        1.0
      ],
      "name": "prim0.001"
    },
    {
      "mesh": 1,
      "name": "Material0-material-material"
    },
    {
      "children": [
        7
      ],
      "matrix": [
        0.7841536,
        -0.002774152,
        0.0,
        0.0,
        0.001736757,
        0.4909189,
        0.0,
        0.0,
        0.0,
        0.0,
        0.294106,
        0.0,
        0.0,
        0.0,
        0.1497948,
        1.0
      ],
      "name": "prim0.002"
    },
    {
      "mesh": 2,
      "name": "Material1-material-material"
    },
    {
      "children": [
        9
      ],
      "matrix": [
        0.7841536,
        -0.002774152,
        0.0,
        0.0,
        0.001736757,
        0.4909189,
        0.0,
        0.0,
        0.0,
        0.0,
        0.294106,
        0.0,
        0.0,
        0.0,
        0.1497948,
        1.0
      ],
      "name": "prim0.004"
    },
    {
      "mesh": 3,
      "name": "Material3-material-material"
    }
  ],
  "samplers": [
    {
      "magFilter": 9729,
      "minFilter": 9987,
      "wrapS": 10497,
      "wrapT": 10497
    }
  ],
  "scene": 0,
  "scenes": [
    {
      "name": "Sketchfab_Scene",
      "nodes": [
        0
      ]
    }
  ],
  "textures": [
    {
      "sampler": 0,
      "source": 0
    },
    {
      "sampler": 0,
      "source": 1
    },
    {
      "sampler": 0,
      "source": 2
    },
    {
      "sampler": 0,
      "source": 3
    },
    {
      "sampler": 0,
      "source": 4
    }
  ]
}
